<svg width="1200" height="900" viewBox="0 0 1200 900" fill="none" xmlns="http://www.w3.org/2000/svg">
  <defs>
    <linearGradient id="burstCore" x1="442" y1="166" x2="760" y2="442" gradientUnits="userSpaceOnUse">
      <stop stop-color="#13C8A3"/>
      <stop offset="0.5" stop-color="#0E89C9"/>
      <stop offset="1" stop-color="#FF7E30"/>
    </linearGradient>
    <linearGradient id="burstV" x1="484" y1="178" x2="706" y2="414" gradientUnits="userSpaceOnUse">
      <stop stop-color="#FFE07A"/>
      <stop offset="0.48" stop-color="#FF9A40"/>
      <stop offset="1" stop-color="#FF5167"/>
    </linearGradient>
    <filter id="burstShadow" x="250" y="0" width="700" height="650" filterUnits="userSpaceOnUse" color-interpolation-filters="sRGB">
      <feFlood flood-opacity="0" result="BackgroundImageFix"/>
      <feColorMatrix in="SourceAlpha" type="matrix" values="0 0 0 0 0 0 0 0 0 0 0 0 0 0 0 0 0 0 127 0" result="hardAlpha"/>
      <feOffset dy="14"/>
      <feGaussianBlur stdDeviation="18"/>
      <feColorMatrix type="matrix" values="0 0 0 0 0.0431373 0 0 0 0 0.133333 0 0 0 0 0.223529 0 0 0 0.1 0"/>
      <feBlend mode="normal" in2="BackgroundImageFix" result="effect1_dropShadow_1_1"/>
      <feBlend mode="normal" in="SourceGraphic" in2="effect1_dropShadow_1_1" result="shape"/>
    </filter>
  </defs>

  <rect width="1200" height="900" fill="#FFFFFF"/>
  <g filter="url(#burstShadow)" transform="translate(0 -22)">
    <path d="M600 136L744 220L744 388L600 472L456 388L456 220L600 136Z" fill="#F6FBFC" stroke="url(#burstCore)" stroke-width="12" stroke-linejoin="round"/>
    <path d="M600 172L704 232V352L600 412L496 352V232L600 172Z" fill="#FFFFFF" stroke="#D6EAEE" stroke-width="4" stroke-linejoin="round"/>
    <path d="M494 188L600 372L706 188" stroke="url(#burstV)" stroke-width="30" stroke-linecap="round" stroke-linejoin="round"/>

    <path d="M456 220L383 178" stroke="url(#burstCore)" stroke-width="10" stroke-linecap="round"/>
    <path d="M456 388L383 430" stroke="url(#burstCore)" stroke-width="10" stroke-linecap="round"/>
    <path d="M744 220L817 178" stroke="url(#burstCore)" stroke-width="10" stroke-linecap="round"/>
    <path d="M744 388L817 430" stroke="url(#burstCore)" stroke-width="10" stroke-linecap="round"/>
    <path d="M600 136V52" stroke="url(#burstCore)" stroke-width="10" stroke-linecap="round"/>
    <path d="M600 472V556" stroke="url(#burstCore)" stroke-width="10" stroke-linecap="round"/>
    <circle cx="383" cy="178" r="14" fill="url(#burstCore)"/>
    <circle cx="383" cy="430" r="14" fill="url(#burstCore)"/>
    <circle cx="817" cy="178" r="14" fill="url(#burstCore)"/>
    <circle cx="817" cy="430" r="14" fill="url(#burstCore)"/>
    <circle cx="600" cy="52" r="14" fill="url(#burstCore)"/>
    <circle cx="600" cy="556" r="14" fill="url(#burstCore)"/>
    <circle cx="600" cy="136" r="12" fill="#F6FBFC" stroke="url(#burstCore)" stroke-width="6"/>
    <circle cx="456" cy="220" r="12" fill="#F6FBFC" stroke="url(#burstCore)" stroke-width="6"/>
    <circle cx="456" cy="388" r="12" fill="#F6FBFC" stroke="url(#burstCore)" stroke-width="6"/>
    <circle cx="744" cy="220" r="12" fill="#F6FBFC" stroke="url(#burstCore)" stroke-width="6"/>
    <circle cx="744" cy="388" r="12" fill="#F6FBFC" stroke="url(#burstCore)" stroke-width="6"/>
    <circle cx="600" cy="472" r="12" fill="#F6FBFC" stroke="url(#burstCore)" stroke-width="6"/>

    <path d="M362 244L324 294L362 344" stroke="#11BFD6" stroke-width="18" stroke-linecap="round" stroke-linejoin="round"/>
    <path d="M838 244L876 294L838 344" stroke="#11BFD6" stroke-width="18" stroke-linecap="round" stroke-linejoin="round"/>
  </g>

  <text x="600" y="650" text-anchor="middle" font-family="'Noto Sans SC', 'Microsoft YaHei', 'PingFang SC', sans-serif" font-size="100" font-weight="800" letter-spacing="6" fill="#0B2238">
    瓦肯编程
  </text>
  <text x="600" y="714" text-anchor="middle" font-family="'Trebuchet MS', 'Segoe UI', sans-serif" font-size="42" font-weight="800" letter-spacing="11" fill="#177A92">
    VULCODING
  </text>
  <text x="600" y="770" text-anchor="middle" font-family="'Segoe UI', 'Microsoft YaHei', sans-serif" font-size="23" font-weight="700" letter-spacing="4" fill="#7A919B">
    YOUNG CODERS · SHARP MINDS
  </text>
</svg>
